<mxfile host="app.diagrams.net" modified="2021-02-17T02:01:31.243Z" agent="5.0 (Windows NT 6.1; Win64; x64) AppleWebKit/537.36 (KHTML, like Gecko) Chrome/88.0.4324.150 Safari/537.36" etag="v4L6dC1zep-DTOeccAqm" version="14.2.9" type="github" pages="2">
  <diagram id="R2lEEEUBdFMjLlhIrx00" name="Page-1">
    <mxGraphModel dx="1014" dy="614" grid="1" gridSize="10" guides="1" tooltips="1" connect="1" arrows="1" fold="1" page="1" pageScale="1" pageWidth="850" pageHeight="1100" math="0" shadow="0" extFonts="Permanent Marker^https://fonts.googleapis.com/css?family=Permanent+Marker">
      <root>
        <mxCell id="0" />
        <mxCell id="1" parent="0" />
        <mxCell id="xWj3TO276vn035Tm0meV-19" value="" style="ellipse;whiteSpace=wrap;html=1;" vertex="1" parent="1">
          <mxGeometry x="150" y="675" width="140" height="95" as="geometry" />
        </mxCell>
        <mxCell id="xWj3TO276vn035Tm0meV-11" value="" style="ellipse;whiteSpace=wrap;html=1;" vertex="1" parent="1">
          <mxGeometry x="512.5" y="675" width="155" height="110" as="geometry" />
        </mxCell>
        <mxCell id="xWj3TO276vn035Tm0meV-1" value="ERD Empresa que vende café y artículos relacionados" style="rounded=0;whiteSpace=wrap;html=1;" vertex="1" parent="1">
          <mxGeometry x="355" y="530" width="140" height="80" as="geometry" />
        </mxCell>
        <mxCell id="xWj3TO276vn035Tm0meV-2" value="Proveedores de café" style="ellipse;whiteSpace=wrap;html=1;" vertex="1" parent="1">
          <mxGeometry x="100" y="510" width="120" height="80" as="geometry" />
        </mxCell>
        <mxCell id="xWj3TO276vn035Tm0meV-3" value="Impportaciones internacionales de cafeteras" style="ellipse;whiteSpace=wrap;html=1;" vertex="1" parent="1">
          <mxGeometry x="160" y="680" width="120" height="80" as="geometry" />
        </mxCell>
        <mxCell id="xWj3TO276vn035Tm0meV-4" value="Proveedores locales de cafeteras" style="ellipse;whiteSpace=wrap;html=1;" vertex="1" parent="1">
          <mxGeometry x="320" y="710" width="120" height="80" as="geometry" />
        </mxCell>
        <mxCell id="xWj3TO276vn035Tm0meV-5" value="Clientes" style="ellipse;whiteSpace=wrap;html=1;" vertex="1" parent="1">
          <mxGeometry x="530" y="690" width="120" height="80" as="geometry" />
        </mxCell>
        <mxCell id="xWj3TO276vn035Tm0meV-17" value="" style="endArrow=classic;html=1;exitX=0;exitY=0.5;exitDx=0;exitDy=0;entryX=1;entryY=0.5;entryDx=0;entryDy=0;" edge="1" parent="1" source="xWj3TO276vn035Tm0meV-1" target="xWj3TO276vn035Tm0meV-2">
          <mxGeometry width="50" height="50" relative="1" as="geometry">
            <mxPoint x="100" y="460" as="sourcePoint" />
            <mxPoint x="150" y="410" as="targetPoint" />
          </mxGeometry>
        </mxCell>
        <mxCell id="xWj3TO276vn035Tm0meV-18" value="" style="endArrow=classic;html=1;entryX=1;entryY=0;entryDx=0;entryDy=0;exitX=0;exitY=1;exitDx=0;exitDy=0;" edge="1" parent="1" source="xWj3TO276vn035Tm0meV-1" target="xWj3TO276vn035Tm0meV-19">
          <mxGeometry width="50" height="50" relative="1" as="geometry">
            <mxPoint x="340" y="680" as="sourcePoint" />
            <mxPoint x="390" y="630" as="targetPoint" />
          </mxGeometry>
        </mxCell>
        <mxCell id="xWj3TO276vn035Tm0meV-20" value="Proveedores" style="ellipse;whiteSpace=wrap;html=1;" vertex="1" parent="1">
          <mxGeometry x="60" y="810" width="120" height="80" as="geometry" />
        </mxCell>
        <mxCell id="xWj3TO276vn035Tm0meV-21" value="Agente aduanas" style="ellipse;whiteSpace=wrap;html=1;" vertex="1" parent="1">
          <mxGeometry x="210" y="840" width="120" height="80" as="geometry" />
        </mxCell>
        <mxCell id="xWj3TO276vn035Tm0meV-22" value="" style="endArrow=classic;html=1;entryX=0.5;entryY=0;entryDx=0;entryDy=0;exitX=0;exitY=1;exitDx=0;exitDy=0;" edge="1" parent="1" source="xWj3TO276vn035Tm0meV-19" target="xWj3TO276vn035Tm0meV-20">
          <mxGeometry width="50" height="50" relative="1" as="geometry">
            <mxPoint x="60" y="730" as="sourcePoint" />
            <mxPoint x="110" y="680" as="targetPoint" />
          </mxGeometry>
        </mxCell>
        <mxCell id="xWj3TO276vn035Tm0meV-23" value="" style="endArrow=classic;html=1;entryX=0.5;entryY=0;entryDx=0;entryDy=0;exitX=0.5;exitY=1;exitDx=0;exitDy=0;" edge="1" parent="1" source="xWj3TO276vn035Tm0meV-19" target="xWj3TO276vn035Tm0meV-21">
          <mxGeometry width="50" height="50" relative="1" as="geometry">
            <mxPoint x="230" y="830" as="sourcePoint" />
            <mxPoint x="280" y="780" as="targetPoint" />
          </mxGeometry>
        </mxCell>
        <mxCell id="xWj3TO276vn035Tm0meV-24" value="" style="endArrow=classic;html=1;entryX=0.5;entryY=0;entryDx=0;entryDy=0;exitX=0.44;exitY=1.053;exitDx=0;exitDy=0;exitPerimeter=0;" edge="1" parent="1" source="xWj3TO276vn035Tm0meV-1" target="xWj3TO276vn035Tm0meV-4">
          <mxGeometry width="50" height="50" relative="1" as="geometry">
            <mxPoint x="430" y="690" as="sourcePoint" />
            <mxPoint x="480" y="640" as="targetPoint" />
          </mxGeometry>
        </mxCell>
        <mxCell id="xWj3TO276vn035Tm0meV-25" value="" style="endArrow=classic;html=1;exitX=1;exitY=1;exitDx=0;exitDy=0;" edge="1" parent="1" source="xWj3TO276vn035Tm0meV-1" target="xWj3TO276vn035Tm0meV-11">
          <mxGeometry width="50" height="50" relative="1" as="geometry">
            <mxPoint x="490" y="680" as="sourcePoint" />
            <mxPoint x="540" y="630" as="targetPoint" />
          </mxGeometry>
        </mxCell>
        <mxCell id="xWj3TO276vn035Tm0meV-28" value="" style="endArrow=none;html=1;entryX=0.5;entryY=1;entryDx=0;entryDy=0;exitX=0.5;exitY=0;exitDx=0;exitDy=0;" edge="1" parent="1" source="xWj3TO276vn035Tm0meV-32" target="xWj3TO276vn035Tm0meV-33">
          <mxGeometry width="50" height="50" relative="1" as="geometry">
            <mxPoint x="425" y="390" as="sourcePoint" />
            <mxPoint x="425.4999999999999" y="330" as="targetPoint" />
          </mxGeometry>
        </mxCell>
        <mxCell id="xWj3TO276vn035Tm0meV-32" value="Tiene" style="shape=rhombus;perimeter=rhombusPerimeter;whiteSpace=wrap;html=1;align=center;" vertex="1" parent="1">
          <mxGeometry x="365.5" y="380" width="120" height="60" as="geometry" />
        </mxCell>
        <mxCell id="xWj3TO276vn035Tm0meV-33" value="Redes sociales" style="rounded=1;arcSize=10;whiteSpace=wrap;html=1;align=center;" vertex="1" parent="1">
          <mxGeometry x="375" y="270" width="100" height="40" as="geometry" />
        </mxCell>
        <mxCell id="xWj3TO276vn035Tm0meV-37" value="" style="endArrow=none;html=1;rounded=0;exitX=0.5;exitY=1;exitDx=0;exitDy=0;entryX=0.5;entryY=0;entryDx=0;entryDy=0;" edge="1" parent="1" source="xWj3TO276vn035Tm0meV-32" target="xWj3TO276vn035Tm0meV-1">
          <mxGeometry relative="1" as="geometry">
            <mxPoint x="280" y="460" as="sourcePoint" />
            <mxPoint x="440" y="460" as="targetPoint" />
          </mxGeometry>
        </mxCell>
        <mxCell id="xWj3TO276vn035Tm0meV-38" value="1:N" style="text;html=1;strokeColor=none;fillColor=none;align=center;verticalAlign=middle;whiteSpace=wrap;rounded=0;" vertex="1" parent="1">
          <mxGeometry x="310" y="400" width="40" height="20" as="geometry" />
        </mxCell>
        <mxCell id="xWj3TO276vn035Tm0meV-39" value="Página web" style="rounded=1;arcSize=10;whiteSpace=wrap;html=1;align=center;" vertex="1" parent="1">
          <mxGeometry x="610" y="280" width="100" height="40" as="geometry" />
        </mxCell>
        <mxCell id="xWj3TO276vn035Tm0meV-40" value="" style="endArrow=none;html=1;exitX=1;exitY=0;exitDx=0;exitDy=0;entryX=0;entryY=0.5;entryDx=0;entryDy=0;" edge="1" parent="1" source="xWj3TO276vn035Tm0meV-1" target="xWj3TO276vn035Tm0meV-41">
          <mxGeometry width="50" height="50" relative="1" as="geometry">
            <mxPoint x="530" y="480" as="sourcePoint" />
            <mxPoint x="580" y="430" as="targetPoint" />
          </mxGeometry>
        </mxCell>
        <mxCell id="xWj3TO276vn035Tm0meV-41" value="Tiene" style="shape=rhombus;perimeter=rhombusPerimeter;whiteSpace=wrap;html=1;align=center;" vertex="1" parent="1">
          <mxGeometry x="600" y="380" width="120" height="60" as="geometry" />
        </mxCell>
        <mxCell id="xWj3TO276vn035Tm0meV-42" value="" style="endArrow=none;html=1;exitX=0.5;exitY=0;exitDx=0;exitDy=0;entryX=0.5;entryY=1;entryDx=0;entryDy=0;" edge="1" parent="1" source="xWj3TO276vn035Tm0meV-41" target="xWj3TO276vn035Tm0meV-39">
          <mxGeometry width="50" height="50" relative="1" as="geometry">
            <mxPoint x="505" y="540" as="sourcePoint" />
            <mxPoint x="670" y="450" as="targetPoint" />
          </mxGeometry>
        </mxCell>
        <mxCell id="xWj3TO276vn035Tm0meV-43" value="1:1" style="text;html=1;strokeColor=none;fillColor=none;align=center;verticalAlign=middle;whiteSpace=wrap;rounded=0;" vertex="1" parent="1">
          <mxGeometry x="580" y="370" width="40" height="20" as="geometry" />
        </mxCell>
        <mxCell id="xWj3TO276vn035Tm0meV-44" value="Repartidores (delivery)" style="rounded=1;arcSize=10;whiteSpace=wrap;html=1;align=center;" vertex="1" parent="1">
          <mxGeometry x="740" y="550" width="100" height="40" as="geometry" />
        </mxCell>
        <mxCell id="xWj3TO276vn035Tm0meV-45" value="Tiene" style="shape=rhombus;perimeter=rhombusPerimeter;whiteSpace=wrap;html=1;align=center;" vertex="1" parent="1">
          <mxGeometry x="560" y="540" width="120" height="60" as="geometry" />
        </mxCell>
        <mxCell id="xWj3TO276vn035Tm0meV-46" value="" style="endArrow=none;html=1;exitX=1;exitY=0.5;exitDx=0;exitDy=0;entryX=0;entryY=0.5;entryDx=0;entryDy=0;" edge="1" parent="1" source="xWj3TO276vn035Tm0meV-1" target="xWj3TO276vn035Tm0meV-45">
          <mxGeometry width="50" height="50" relative="1" as="geometry">
            <mxPoint x="505" y="540" as="sourcePoint" />
            <mxPoint x="610" y="420" as="targetPoint" />
          </mxGeometry>
        </mxCell>
        <mxCell id="xWj3TO276vn035Tm0meV-47" value="" style="endArrow=none;html=1;exitX=1;exitY=0.5;exitDx=0;exitDy=0;entryX=0;entryY=0.5;entryDx=0;entryDy=0;" edge="1" parent="1" source="xWj3TO276vn035Tm0meV-45" target="xWj3TO276vn035Tm0meV-44">
          <mxGeometry width="50" height="50" relative="1" as="geometry">
            <mxPoint x="655" y="610" as="sourcePoint" />
            <mxPoint x="720" y="600" as="targetPoint" />
          </mxGeometry>
        </mxCell>
      </root>
    </mxGraphModel>
  </diagram>
  <diagram id="zziJUOk8sEOQgo3oagU7" name="Page-2">
    <mxGraphModel dx="1014" dy="614" grid="1" gridSize="10" guides="1" tooltips="1" connect="1" arrows="1" fold="1" page="1" pageScale="1" pageWidth="827" pageHeight="1169" math="0" shadow="0">
      <root>
        <mxCell id="BxWfVEIkuTFbyg9M_xNW-0" />
        <mxCell id="BxWfVEIkuTFbyg9M_xNW-1" parent="BxWfVEIkuTFbyg9M_xNW-0" />
        <mxCell id="NWCm98vPwi3nefFgjLIH-0" value="CoffeePrometedor.pe" style="shape=table;startSize=30;container=1;collapsible=1;childLayout=tableLayout;fixedRows=1;rowLines=0;fontStyle=1;align=center;resizeLast=1;" vertex="1" parent="BxWfVEIkuTFbyg9M_xNW-1">
          <mxGeometry x="80" y="600" width="230" height="170" as="geometry" />
        </mxCell>
        <mxCell id="NWCm98vPwi3nefFgjLIH-1" value="" style="shape=partialRectangle;collapsible=0;dropTarget=0;pointerEvents=0;fillColor=none;top=0;left=0;bottom=1;right=0;points=[[0,0.5],[1,0.5]];portConstraint=eastwest;" vertex="1" parent="NWCm98vPwi3nefFgjLIH-0">
          <mxGeometry y="30" width="230" height="30" as="geometry" />
        </mxCell>
        <mxCell id="NWCm98vPwi3nefFgjLIH-2" value="PK" style="shape=partialRectangle;connectable=0;fillColor=none;top=0;left=0;bottom=0;right=0;fontStyle=1;overflow=hidden;" vertex="1" parent="NWCm98vPwi3nefFgjLIH-1">
          <mxGeometry width="30" height="30" as="geometry" />
        </mxCell>
        <mxCell id="NWCm98vPwi3nefFgjLIH-3" value="ID: VARCHAR (50)" style="shape=partialRectangle;connectable=0;fillColor=none;top=0;left=0;bottom=0;right=0;align=left;spacingLeft=6;fontStyle=5;overflow=hidden;" vertex="1" parent="NWCm98vPwi3nefFgjLIH-1">
          <mxGeometry x="30" width="200" height="30" as="geometry" />
        </mxCell>
        <mxCell id="NWCm98vPwi3nefFgjLIH-4" value="" style="shape=partialRectangle;collapsible=0;dropTarget=0;pointerEvents=0;fillColor=none;top=0;left=0;bottom=0;right=0;points=[[0,0.5],[1,0.5]];portConstraint=eastwest;" vertex="1" parent="NWCm98vPwi3nefFgjLIH-0">
          <mxGeometry y="60" width="230" height="30" as="geometry" />
        </mxCell>
        <mxCell id="NWCm98vPwi3nefFgjLIH-5" value="" style="shape=partialRectangle;connectable=0;fillColor=none;top=0;left=0;bottom=0;right=0;editable=1;overflow=hidden;" vertex="1" parent="NWCm98vPwi3nefFgjLIH-4">
          <mxGeometry width="30" height="30" as="geometry" />
        </mxCell>
        <mxCell id="NWCm98vPwi3nefFgjLIH-6" value="" style="shape=partialRectangle;connectable=0;fillColor=none;top=0;left=0;bottom=0;right=0;align=left;spacingLeft=6;overflow=hidden;" vertex="1" parent="NWCm98vPwi3nefFgjLIH-4">
          <mxGeometry x="30" width="200" height="30" as="geometry" />
        </mxCell>
        <mxCell id="NWCm98vPwi3nefFgjLIH-7" value="" style="shape=partialRectangle;collapsible=0;dropTarget=0;pointerEvents=0;fillColor=none;top=0;left=0;bottom=0;right=0;points=[[0,0.5],[1,0.5]];portConstraint=eastwest;" vertex="1" parent="NWCm98vPwi3nefFgjLIH-0">
          <mxGeometry y="90" width="230" height="30" as="geometry" />
        </mxCell>
        <mxCell id="NWCm98vPwi3nefFgjLIH-8" value="" style="shape=partialRectangle;connectable=0;fillColor=none;top=0;left=0;bottom=0;right=0;editable=1;overflow=hidden;" vertex="1" parent="NWCm98vPwi3nefFgjLIH-7">
          <mxGeometry width="30" height="30" as="geometry" />
        </mxCell>
        <mxCell id="NWCm98vPwi3nefFgjLIH-9" value="" style="shape=partialRectangle;connectable=0;fillColor=none;top=0;left=0;bottom=0;right=0;align=left;spacingLeft=6;overflow=hidden;" vertex="1" parent="NWCm98vPwi3nefFgjLIH-7">
          <mxGeometry x="30" width="200" height="30" as="geometry" />
        </mxCell>
        <mxCell id="NWCm98vPwi3nefFgjLIH-10" value="" style="shape=partialRectangle;collapsible=0;dropTarget=0;pointerEvents=0;fillColor=none;top=0;left=0;bottom=0;right=0;points=[[0,0.5],[1,0.5]];portConstraint=eastwest;" vertex="1" parent="NWCm98vPwi3nefFgjLIH-0">
          <mxGeometry y="120" width="230" height="30" as="geometry" />
        </mxCell>
        <mxCell id="NWCm98vPwi3nefFgjLIH-11" value="" style="shape=partialRectangle;connectable=0;fillColor=none;top=0;left=0;bottom=0;right=0;editable=1;overflow=hidden;" vertex="1" parent="NWCm98vPwi3nefFgjLIH-10">
          <mxGeometry width="30" height="30" as="geometry" />
        </mxCell>
        <mxCell id="NWCm98vPwi3nefFgjLIH-12" value="" style="shape=partialRectangle;connectable=0;fillColor=none;top=0;left=0;bottom=0;right=0;align=left;spacingLeft=6;overflow=hidden;" vertex="1" parent="NWCm98vPwi3nefFgjLIH-10">
          <mxGeometry x="30" width="200" height="30" as="geometry" />
        </mxCell>
        <mxCell id="NWCm98vPwi3nefFgjLIH-13" value="Clientes" style="shape=table;startSize=30;container=1;collapsible=1;childLayout=tableLayout;fixedRows=1;rowLines=0;fontStyle=1;align=center;resizeLast=1;" vertex="1" parent="BxWfVEIkuTFbyg9M_xNW-1">
          <mxGeometry x="520" y="320" width="240" height="160" as="geometry">
            <mxRectangle x="470" y="140" width="80" height="30" as="alternateBounds" />
          </mxGeometry>
        </mxCell>
        <mxCell id="NWCm98vPwi3nefFgjLIH-14" value="" style="shape=partialRectangle;collapsible=0;dropTarget=0;pointerEvents=0;fillColor=none;top=0;left=0;bottom=1;right=0;points=[[0,0.5],[1,0.5]];portConstraint=eastwest;" vertex="1" parent="NWCm98vPwi3nefFgjLIH-13">
          <mxGeometry y="30" width="240" height="30" as="geometry" />
        </mxCell>
        <mxCell id="NWCm98vPwi3nefFgjLIH-15" value="PK" style="shape=partialRectangle;connectable=0;fillColor=none;top=0;left=0;bottom=0;right=0;fontStyle=1;overflow=hidden;" vertex="1" parent="NWCm98vPwi3nefFgjLIH-14">
          <mxGeometry width="30" height="30" as="geometry" />
        </mxCell>
        <mxCell id="NWCm98vPwi3nefFgjLIH-16" value="ID: VARCHAR(50)" style="shape=partialRectangle;connectable=0;fillColor=none;top=0;left=0;bottom=0;right=0;align=left;spacingLeft=6;fontStyle=5;overflow=hidden;" vertex="1" parent="NWCm98vPwi3nefFgjLIH-14">
          <mxGeometry x="30" width="210" height="30" as="geometry" />
        </mxCell>
        <mxCell id="NWCm98vPwi3nefFgjLIH-17" value="" style="shape=partialRectangle;collapsible=0;dropTarget=0;pointerEvents=0;fillColor=none;top=0;left=0;bottom=0;right=0;points=[[0,0.5],[1,0.5]];portConstraint=eastwest;" vertex="1" parent="NWCm98vPwi3nefFgjLIH-13">
          <mxGeometry y="60" width="240" height="30" as="geometry" />
        </mxCell>
        <mxCell id="NWCm98vPwi3nefFgjLIH-18" value="" style="shape=partialRectangle;connectable=0;fillColor=none;top=0;left=0;bottom=0;right=0;editable=1;overflow=hidden;" vertex="1" parent="NWCm98vPwi3nefFgjLIH-17">
          <mxGeometry width="30" height="30" as="geometry" />
        </mxCell>
        <mxCell id="NWCm98vPwi3nefFgjLIH-19" value="email: VARCHAR(50) NN UNIQUE" style="shape=partialRectangle;connectable=0;fillColor=none;top=0;left=0;bottom=0;right=0;align=left;spacingLeft=6;overflow=hidden;" vertex="1" parent="NWCm98vPwi3nefFgjLIH-17">
          <mxGeometry x="30" width="210" height="30" as="geometry" />
        </mxCell>
        <mxCell id="NWCm98vPwi3nefFgjLIH-20" value="" style="shape=partialRectangle;collapsible=0;dropTarget=0;pointerEvents=0;fillColor=none;top=0;left=0;bottom=0;right=0;points=[[0,0.5],[1,0.5]];portConstraint=eastwest;" vertex="1" parent="NWCm98vPwi3nefFgjLIH-13">
          <mxGeometry y="90" width="240" height="30" as="geometry" />
        </mxCell>
        <mxCell id="NWCm98vPwi3nefFgjLIH-21" value="" style="shape=partialRectangle;connectable=0;fillColor=none;top=0;left=0;bottom=0;right=0;editable=1;overflow=hidden;" vertex="1" parent="NWCm98vPwi3nefFgjLIH-20">
          <mxGeometry width="30" height="30" as="geometry" />
        </mxCell>
        <mxCell id="NWCm98vPwi3nefFgjLIH-22" value="password: VARCHAR (50) NN" style="shape=partialRectangle;connectable=0;fillColor=none;top=0;left=0;bottom=0;right=0;align=left;spacingLeft=6;overflow=hidden;" vertex="1" parent="NWCm98vPwi3nefFgjLIH-20">
          <mxGeometry x="30" width="210" height="30" as="geometry" />
        </mxCell>
        <mxCell id="NWCm98vPwi3nefFgjLIH-82" value="" style="shape=partialRectangle;collapsible=0;dropTarget=0;pointerEvents=0;fillColor=none;top=0;left=0;bottom=0;right=0;points=[[0,0.5],[1,0.5]];portConstraint=eastwest;" vertex="1" parent="NWCm98vPwi3nefFgjLIH-13">
          <mxGeometry y="120" width="240" height="20" as="geometry" />
        </mxCell>
        <mxCell id="NWCm98vPwi3nefFgjLIH-83" value="" style="shape=partialRectangle;connectable=0;fillColor=none;top=0;left=0;bottom=0;right=0;editable=1;overflow=hidden;" vertex="1" parent="NWCm98vPwi3nefFgjLIH-82">
          <mxGeometry width="30" height="20" as="geometry" />
        </mxCell>
        <mxCell id="NWCm98vPwi3nefFgjLIH-84" value="" style="shape=partialRectangle;connectable=0;fillColor=none;top=0;left=0;bottom=0;right=0;align=left;spacingLeft=6;overflow=hidden;" vertex="1" parent="NWCm98vPwi3nefFgjLIH-82">
          <mxGeometry x="30" width="210" height="20" as="geometry" />
        </mxCell>
        <mxCell id="NWCm98vPwi3nefFgjLIH-23" value="" style="shape=partialRectangle;collapsible=0;dropTarget=0;pointerEvents=0;fillColor=none;top=0;left=0;bottom=0;right=0;points=[[0,0.5],[1,0.5]];portConstraint=eastwest;" vertex="1" parent="NWCm98vPwi3nefFgjLIH-13">
          <mxGeometry y="140" width="240" height="20" as="geometry" />
        </mxCell>
        <mxCell id="NWCm98vPwi3nefFgjLIH-24" value="" style="shape=partialRectangle;connectable=0;fillColor=none;top=0;left=0;bottom=0;right=0;editable=1;overflow=hidden;" vertex="1" parent="NWCm98vPwi3nefFgjLIH-23">
          <mxGeometry width="30" height="20" as="geometry" />
        </mxCell>
        <mxCell id="NWCm98vPwi3nefFgjLIH-25" value="" style="shape=partialRectangle;connectable=0;fillColor=none;top=0;left=0;bottom=0;right=0;align=left;spacingLeft=6;overflow=hidden;" vertex="1" parent="NWCm98vPwi3nefFgjLIH-23">
          <mxGeometry x="30" width="210" height="20" as="geometry" />
        </mxCell>
        <mxCell id="NWCm98vPwi3nefFgjLIH-26" value="Café (tipos)" style="shape=table;startSize=30;container=1;collapsible=1;childLayout=tableLayout;fixedRows=1;rowLines=0;fontStyle=1;align=center;resizeLast=1;" vertex="1" parent="BxWfVEIkuTFbyg9M_xNW-1">
          <mxGeometry x="530" y="500" width="250" height="180" as="geometry" />
        </mxCell>
        <mxCell id="NWCm98vPwi3nefFgjLIH-27" value="" style="shape=partialRectangle;collapsible=0;dropTarget=0;pointerEvents=0;fillColor=none;top=0;left=0;bottom=1;right=0;points=[[0,0.5],[1,0.5]];portConstraint=eastwest;" vertex="1" parent="NWCm98vPwi3nefFgjLIH-26">
          <mxGeometry y="30" width="250" height="30" as="geometry" />
        </mxCell>
        <mxCell id="NWCm98vPwi3nefFgjLIH-28" value="PK" style="shape=partialRectangle;connectable=0;fillColor=none;top=0;left=0;bottom=0;right=0;fontStyle=1;overflow=hidden;" vertex="1" parent="NWCm98vPwi3nefFgjLIH-27">
          <mxGeometry width="30" height="30" as="geometry" />
        </mxCell>
        <mxCell id="NWCm98vPwi3nefFgjLIH-29" value="ID: VARCHAR (50)" style="shape=partialRectangle;connectable=0;fillColor=none;top=0;left=0;bottom=0;right=0;align=left;spacingLeft=6;fontStyle=5;overflow=hidden;" vertex="1" parent="NWCm98vPwi3nefFgjLIH-27">
          <mxGeometry x="30" width="220" height="30" as="geometry" />
        </mxCell>
        <mxCell id="NWCm98vPwi3nefFgjLIH-30" value="" style="shape=partialRectangle;collapsible=0;dropTarget=0;pointerEvents=0;fillColor=none;top=0;left=0;bottom=0;right=0;points=[[0,0.5],[1,0.5]];portConstraint=eastwest;" vertex="1" parent="NWCm98vPwi3nefFgjLIH-26">
          <mxGeometry y="60" width="250" height="30" as="geometry" />
        </mxCell>
        <mxCell id="NWCm98vPwi3nefFgjLIH-31" value="" style="shape=partialRectangle;connectable=0;fillColor=none;top=0;left=0;bottom=0;right=0;editable=1;overflow=hidden;" vertex="1" parent="NWCm98vPwi3nefFgjLIH-30">
          <mxGeometry width="30" height="30" as="geometry" />
        </mxCell>
        <mxCell id="NWCm98vPwi3nefFgjLIH-32" value="Tostado: VARCHAR (20)" style="shape=partialRectangle;connectable=0;fillColor=none;top=0;left=0;bottom=0;right=0;align=left;spacingLeft=6;overflow=hidden;" vertex="1" parent="NWCm98vPwi3nefFgjLIH-30">
          <mxGeometry x="30" width="220" height="30" as="geometry" />
        </mxCell>
        <mxCell id="NWCm98vPwi3nefFgjLIH-33" value="" style="shape=partialRectangle;collapsible=0;dropTarget=0;pointerEvents=0;fillColor=none;top=0;left=0;bottom=0;right=0;points=[[0,0.5],[1,0.5]];portConstraint=eastwest;" vertex="1" parent="NWCm98vPwi3nefFgjLIH-26">
          <mxGeometry y="90" width="250" height="30" as="geometry" />
        </mxCell>
        <mxCell id="NWCm98vPwi3nefFgjLIH-34" value="" style="shape=partialRectangle;connectable=0;fillColor=none;top=0;left=0;bottom=0;right=0;editable=1;overflow=hidden;" vertex="1" parent="NWCm98vPwi3nefFgjLIH-33">
          <mxGeometry width="30" height="30" as="geometry" />
        </mxCell>
        <mxCell id="NWCm98vPwi3nefFgjLIH-35" value="Molido: VARCHAR (20)" style="shape=partialRectangle;connectable=0;fillColor=none;top=0;left=0;bottom=0;right=0;align=left;spacingLeft=6;overflow=hidden;" vertex="1" parent="NWCm98vPwi3nefFgjLIH-33">
          <mxGeometry x="30" width="220" height="30" as="geometry" />
        </mxCell>
        <mxCell id="NWCm98vPwi3nefFgjLIH-36" value="" style="shape=partialRectangle;collapsible=0;dropTarget=0;pointerEvents=0;fillColor=none;top=0;left=0;bottom=0;right=0;points=[[0,0.5],[1,0.5]];portConstraint=eastwest;" vertex="1" parent="NWCm98vPwi3nefFgjLIH-26">
          <mxGeometry y="120" width="250" height="30" as="geometry" />
        </mxCell>
        <mxCell id="NWCm98vPwi3nefFgjLIH-37" value="" style="shape=partialRectangle;connectable=0;fillColor=none;top=0;left=0;bottom=0;right=0;editable=1;overflow=hidden;" vertex="1" parent="NWCm98vPwi3nefFgjLIH-36">
          <mxGeometry width="30" height="30" as="geometry" />
        </mxCell>
        <mxCell id="NWCm98vPwi3nefFgjLIH-38" value="Origen: VARCHAR (50)" style="shape=partialRectangle;connectable=0;fillColor=none;top=0;left=0;bottom=0;right=0;align=left;spacingLeft=6;overflow=hidden;" vertex="1" parent="NWCm98vPwi3nefFgjLIH-36">
          <mxGeometry x="30" width="220" height="30" as="geometry" />
        </mxCell>
        <mxCell id="NWCm98vPwi3nefFgjLIH-39" value="Artículos_café" style="shape=table;startSize=30;container=1;collapsible=1;childLayout=tableLayout;fixedRows=1;rowLines=0;fontStyle=1;align=center;resizeLast=1;" vertex="1" parent="BxWfVEIkuTFbyg9M_xNW-1">
          <mxGeometry x="540" y="730" width="260" height="170" as="geometry" />
        </mxCell>
        <mxCell id="NWCm98vPwi3nefFgjLIH-40" value="" style="shape=partialRectangle;collapsible=0;dropTarget=0;pointerEvents=0;fillColor=none;top=0;left=0;bottom=1;right=0;points=[[0,0.5],[1,0.5]];portConstraint=eastwest;" vertex="1" parent="NWCm98vPwi3nefFgjLIH-39">
          <mxGeometry y="30" width="260" height="30" as="geometry" />
        </mxCell>
        <mxCell id="NWCm98vPwi3nefFgjLIH-41" value="PK" style="shape=partialRectangle;connectable=0;fillColor=none;top=0;left=0;bottom=0;right=0;fontStyle=1;overflow=hidden;" vertex="1" parent="NWCm98vPwi3nefFgjLIH-40">
          <mxGeometry width="30" height="30" as="geometry" />
        </mxCell>
        <mxCell id="NWCm98vPwi3nefFgjLIH-42" value="ID: VARCHAR (50)" style="shape=partialRectangle;connectable=0;fillColor=none;top=0;left=0;bottom=0;right=0;align=left;spacingLeft=6;fontStyle=5;overflow=hidden;" vertex="1" parent="NWCm98vPwi3nefFgjLIH-40">
          <mxGeometry x="30" width="230" height="30" as="geometry" />
        </mxCell>
        <mxCell id="NWCm98vPwi3nefFgjLIH-43" value="" style="shape=partialRectangle;collapsible=0;dropTarget=0;pointerEvents=0;fillColor=none;top=0;left=0;bottom=0;right=0;points=[[0,0.5],[1,0.5]];portConstraint=eastwest;" vertex="1" parent="NWCm98vPwi3nefFgjLIH-39">
          <mxGeometry y="60" width="260" height="30" as="geometry" />
        </mxCell>
        <mxCell id="NWCm98vPwi3nefFgjLIH-44" value="" style="shape=partialRectangle;connectable=0;fillColor=none;top=0;left=0;bottom=0;right=0;editable=1;overflow=hidden;" vertex="1" parent="NWCm98vPwi3nefFgjLIH-43">
          <mxGeometry width="30" height="30" as="geometry" />
        </mxCell>
        <mxCell id="NWCm98vPwi3nefFgjLIH-45" value="Item: VARCHAR (50)" style="shape=partialRectangle;connectable=0;fillColor=none;top=0;left=0;bottom=0;right=0;align=left;spacingLeft=6;overflow=hidden;" vertex="1" parent="NWCm98vPwi3nefFgjLIH-43">
          <mxGeometry x="30" width="230" height="30" as="geometry" />
        </mxCell>
        <mxCell id="NWCm98vPwi3nefFgjLIH-46" value="" style="shape=partialRectangle;collapsible=0;dropTarget=0;pointerEvents=0;fillColor=none;top=0;left=0;bottom=0;right=0;points=[[0,0.5],[1,0.5]];portConstraint=eastwest;" vertex="1" parent="NWCm98vPwi3nefFgjLIH-39">
          <mxGeometry y="90" width="260" height="30" as="geometry" />
        </mxCell>
        <mxCell id="NWCm98vPwi3nefFgjLIH-47" value="" style="shape=partialRectangle;connectable=0;fillColor=none;top=0;left=0;bottom=0;right=0;editable=1;overflow=hidden;" vertex="1" parent="NWCm98vPwi3nefFgjLIH-46">
          <mxGeometry width="30" height="30" as="geometry" />
        </mxCell>
        <mxCell id="NWCm98vPwi3nefFgjLIH-48" value="Origen: VARCHAR (50)" style="shape=partialRectangle;connectable=0;fillColor=none;top=0;left=0;bottom=0;right=0;align=left;spacingLeft=6;overflow=hidden;" vertex="1" parent="NWCm98vPwi3nefFgjLIH-46">
          <mxGeometry x="30" width="230" height="30" as="geometry" />
        </mxCell>
        <mxCell id="NWCm98vPwi3nefFgjLIH-49" value="" style="shape=partialRectangle;collapsible=0;dropTarget=0;pointerEvents=0;fillColor=none;top=0;left=0;bottom=0;right=0;points=[[0,0.5],[1,0.5]];portConstraint=eastwest;" vertex="1" parent="NWCm98vPwi3nefFgjLIH-39">
          <mxGeometry y="120" width="260" height="40" as="geometry" />
        </mxCell>
        <mxCell id="NWCm98vPwi3nefFgjLIH-50" value="" style="shape=partialRectangle;connectable=0;fillColor=none;top=0;left=0;bottom=0;right=0;editable=1;overflow=hidden;" vertex="1" parent="NWCm98vPwi3nefFgjLIH-49">
          <mxGeometry width="30" height="40" as="geometry" />
        </mxCell>
        <mxCell id="NWCm98vPwi3nefFgjLIH-51" value="" style="shape=partialRectangle;connectable=0;fillColor=none;top=0;left=0;bottom=0;right=0;align=left;spacingLeft=6;overflow=hidden;" vertex="1" parent="NWCm98vPwi3nefFgjLIH-49">
          <mxGeometry x="30" width="230" height="40" as="geometry" />
        </mxCell>
        <mxCell id="NWCm98vPwi3nefFgjLIH-52" value="RedSociales" style="shape=table;startSize=30;container=1;collapsible=1;childLayout=tableLayout;fixedRows=1;rowLines=0;fontStyle=1;align=center;resizeLast=1;" vertex="1" parent="BxWfVEIkuTFbyg9M_xNW-1">
          <mxGeometry x="200" y="220" width="200" height="160" as="geometry" />
        </mxCell>
        <mxCell id="NWCm98vPwi3nefFgjLIH-53" value="" style="shape=partialRectangle;collapsible=0;dropTarget=0;pointerEvents=0;fillColor=none;top=0;left=0;bottom=1;right=0;points=[[0,0.5],[1,0.5]];portConstraint=eastwest;" vertex="1" parent="NWCm98vPwi3nefFgjLIH-52">
          <mxGeometry y="30" width="200" height="30" as="geometry" />
        </mxCell>
        <mxCell id="NWCm98vPwi3nefFgjLIH-54" value="PK" style="shape=partialRectangle;connectable=0;fillColor=none;top=0;left=0;bottom=0;right=0;fontStyle=1;overflow=hidden;" vertex="1" parent="NWCm98vPwi3nefFgjLIH-53">
          <mxGeometry width="30" height="30" as="geometry" />
        </mxCell>
        <mxCell id="NWCm98vPwi3nefFgjLIH-55" value="ID: VARCHAR (20)" style="shape=partialRectangle;connectable=0;fillColor=none;top=0;left=0;bottom=0;right=0;align=left;spacingLeft=6;fontStyle=5;overflow=hidden;" vertex="1" parent="NWCm98vPwi3nefFgjLIH-53">
          <mxGeometry x="30" width="170" height="30" as="geometry" />
        </mxCell>
        <mxCell id="NWCm98vPwi3nefFgjLIH-56" value="" style="shape=partialRectangle;collapsible=0;dropTarget=0;pointerEvents=0;fillColor=none;top=0;left=0;bottom=0;right=0;points=[[0,0.5],[1,0.5]];portConstraint=eastwest;" vertex="1" parent="NWCm98vPwi3nefFgjLIH-52">
          <mxGeometry y="60" width="200" height="30" as="geometry" />
        </mxCell>
        <mxCell id="NWCm98vPwi3nefFgjLIH-57" value="" style="shape=partialRectangle;connectable=0;fillColor=none;top=0;left=0;bottom=0;right=0;editable=1;overflow=hidden;" vertex="1" parent="NWCm98vPwi3nefFgjLIH-56">
          <mxGeometry width="30" height="30" as="geometry" />
        </mxCell>
        <mxCell id="NWCm98vPwi3nefFgjLIH-58" value="Plataforma: VARCHAR (20)" style="shape=partialRectangle;connectable=0;fillColor=none;top=0;left=0;bottom=0;right=0;align=left;spacingLeft=6;overflow=hidden;" vertex="1" parent="NWCm98vPwi3nefFgjLIH-56">
          <mxGeometry x="30" width="170" height="30" as="geometry" />
        </mxCell>
        <mxCell id="NWCm98vPwi3nefFgjLIH-59" value="" style="shape=partialRectangle;collapsible=0;dropTarget=0;pointerEvents=0;fillColor=none;top=0;left=0;bottom=0;right=0;points=[[0,0.5],[1,0.5]];portConstraint=eastwest;" vertex="1" parent="NWCm98vPwi3nefFgjLIH-52">
          <mxGeometry y="90" width="200" height="30" as="geometry" />
        </mxCell>
        <mxCell id="NWCm98vPwi3nefFgjLIH-60" value="" style="shape=partialRectangle;connectable=0;fillColor=none;top=0;left=0;bottom=0;right=0;editable=1;overflow=hidden;" vertex="1" parent="NWCm98vPwi3nefFgjLIH-59">
          <mxGeometry width="30" height="30" as="geometry" />
        </mxCell>
        <mxCell id="NWCm98vPwi3nefFgjLIH-61" value="" style="shape=partialRectangle;connectable=0;fillColor=none;top=0;left=0;bottom=0;right=0;align=left;spacingLeft=6;overflow=hidden;" vertex="1" parent="NWCm98vPwi3nefFgjLIH-59">
          <mxGeometry x="30" width="170" height="30" as="geometry" />
        </mxCell>
        <mxCell id="NWCm98vPwi3nefFgjLIH-62" value="" style="shape=partialRectangle;collapsible=0;dropTarget=0;pointerEvents=0;fillColor=none;top=0;left=0;bottom=0;right=0;points=[[0,0.5],[1,0.5]];portConstraint=eastwest;" vertex="1" parent="NWCm98vPwi3nefFgjLIH-52">
          <mxGeometry y="120" width="200" height="30" as="geometry" />
        </mxCell>
        <mxCell id="NWCm98vPwi3nefFgjLIH-63" value="" style="shape=partialRectangle;connectable=0;fillColor=none;top=0;left=0;bottom=0;right=0;editable=1;overflow=hidden;" vertex="1" parent="NWCm98vPwi3nefFgjLIH-62">
          <mxGeometry width="30" height="30" as="geometry" />
        </mxCell>
        <mxCell id="NWCm98vPwi3nefFgjLIH-64" value="" style="shape=partialRectangle;connectable=0;fillColor=none;top=0;left=0;bottom=0;right=0;align=left;spacingLeft=6;overflow=hidden;" vertex="1" parent="NWCm98vPwi3nefFgjLIH-62">
          <mxGeometry x="30" width="170" height="30" as="geometry" />
        </mxCell>
        <mxCell id="NWCm98vPwi3nefFgjLIH-65" value="Delivery" style="shape=table;startSize=30;container=1;collapsible=1;childLayout=tableLayout;fixedRows=1;rowLines=0;fontStyle=1;align=center;resizeLast=1;" vertex="1" parent="BxWfVEIkuTFbyg9M_xNW-1">
          <mxGeometry x="220" y="850" width="220" height="160" as="geometry" />
        </mxCell>
        <mxCell id="NWCm98vPwi3nefFgjLIH-66" value="" style="shape=partialRectangle;collapsible=0;dropTarget=0;pointerEvents=0;fillColor=none;top=0;left=0;bottom=1;right=0;points=[[0,0.5],[1,0.5]];portConstraint=eastwest;" vertex="1" parent="NWCm98vPwi3nefFgjLIH-65">
          <mxGeometry y="30" width="220" height="30" as="geometry" />
        </mxCell>
        <mxCell id="NWCm98vPwi3nefFgjLIH-67" value="PK" style="shape=partialRectangle;connectable=0;fillColor=none;top=0;left=0;bottom=0;right=0;fontStyle=1;overflow=hidden;" vertex="1" parent="NWCm98vPwi3nefFgjLIH-66">
          <mxGeometry width="30" height="30" as="geometry" />
        </mxCell>
        <mxCell id="NWCm98vPwi3nefFgjLIH-68" value="ID: VARCHAR (50)" style="shape=partialRectangle;connectable=0;fillColor=none;top=0;left=0;bottom=0;right=0;align=left;spacingLeft=6;fontStyle=5;overflow=hidden;" vertex="1" parent="NWCm98vPwi3nefFgjLIH-66">
          <mxGeometry x="30" width="190" height="30" as="geometry" />
        </mxCell>
        <mxCell id="NWCm98vPwi3nefFgjLIH-69" value="" style="shape=partialRectangle;collapsible=0;dropTarget=0;pointerEvents=0;fillColor=none;top=0;left=0;bottom=0;right=0;points=[[0,0.5],[1,0.5]];portConstraint=eastwest;" vertex="1" parent="NWCm98vPwi3nefFgjLIH-65">
          <mxGeometry y="60" width="220" height="30" as="geometry" />
        </mxCell>
        <mxCell id="NWCm98vPwi3nefFgjLIH-70" value="" style="shape=partialRectangle;connectable=0;fillColor=none;top=0;left=0;bottom=0;right=0;editable=1;overflow=hidden;" vertex="1" parent="NWCm98vPwi3nefFgjLIH-69">
          <mxGeometry width="30" height="30" as="geometry" />
        </mxCell>
        <mxCell id="NWCm98vPwi3nefFgjLIH-71" value="nombres: VARCHAR(50) NN" style="shape=partialRectangle;connectable=0;fillColor=none;top=0;left=0;bottom=0;right=0;align=left;spacingLeft=6;overflow=hidden;" vertex="1" parent="NWCm98vPwi3nefFgjLIH-69">
          <mxGeometry x="30" width="190" height="30" as="geometry" />
        </mxCell>
        <mxCell id="NWCm98vPwi3nefFgjLIH-72" value="" style="shape=partialRectangle;collapsible=0;dropTarget=0;pointerEvents=0;fillColor=none;top=0;left=0;bottom=0;right=0;points=[[0,0.5],[1,0.5]];portConstraint=eastwest;" vertex="1" parent="NWCm98vPwi3nefFgjLIH-65">
          <mxGeometry y="90" width="220" height="30" as="geometry" />
        </mxCell>
        <mxCell id="NWCm98vPwi3nefFgjLIH-73" value="" style="shape=partialRectangle;connectable=0;fillColor=none;top=0;left=0;bottom=0;right=0;editable=1;overflow=hidden;" vertex="1" parent="NWCm98vPwi3nefFgjLIH-72">
          <mxGeometry width="30" height="30" as="geometry" />
        </mxCell>
        <mxCell id="NWCm98vPwi3nefFgjLIH-74" value="alias: VARCHAR/50) UNIQUE" style="shape=partialRectangle;connectable=0;fillColor=none;top=0;left=0;bottom=0;right=0;align=left;spacingLeft=6;overflow=hidden;" vertex="1" parent="NWCm98vPwi3nefFgjLIH-72">
          <mxGeometry x="30" width="190" height="30" as="geometry" />
        </mxCell>
        <mxCell id="NWCm98vPwi3nefFgjLIH-75" value="" style="shape=partialRectangle;collapsible=0;dropTarget=0;pointerEvents=0;fillColor=none;top=0;left=0;bottom=0;right=0;points=[[0,0.5],[1,0.5]];portConstraint=eastwest;" vertex="1" parent="NWCm98vPwi3nefFgjLIH-65">
          <mxGeometry y="120" width="220" height="30" as="geometry" />
        </mxCell>
        <mxCell id="NWCm98vPwi3nefFgjLIH-76" value="" style="shape=partialRectangle;connectable=0;fillColor=none;top=0;left=0;bottom=0;right=0;editable=1;overflow=hidden;" vertex="1" parent="NWCm98vPwi3nefFgjLIH-75">
          <mxGeometry width="30" height="30" as="geometry" />
        </mxCell>
        <mxCell id="NWCm98vPwi3nefFgjLIH-77" value="" style="shape=partialRectangle;connectable=0;fillColor=none;top=0;left=0;bottom=0;right=0;align=left;spacingLeft=6;overflow=hidden;" vertex="1" parent="NWCm98vPwi3nefFgjLIH-75">
          <mxGeometry x="30" width="190" height="30" as="geometry" />
        </mxCell>
        <mxCell id="NWCm98vPwi3nefFgjLIH-78" value="" style="edgeStyle=entityRelationEdgeStyle;fontSize=12;html=1;endArrow=ERzeroToMany;endFill=1;entryX=0;entryY=0.5;entryDx=0;entryDy=0;" edge="1" parent="BxWfVEIkuTFbyg9M_xNW-1" source="NWCm98vPwi3nefFgjLIH-7" target="NWCm98vPwi3nefFgjLIH-17">
          <mxGeometry width="100" height="100" relative="1" as="geometry">
            <mxPoint x="314" y="450" as="sourcePoint" />
            <mxPoint x="414" y="350" as="targetPoint" />
          </mxGeometry>
        </mxCell>
        <mxCell id="NWCm98vPwi3nefFgjLIH-79" value="" style="edgeStyle=entityRelationEdgeStyle;fontSize=12;html=1;endArrow=ERzeroToMany;endFill=1;entryX=0;entryY=0.5;entryDx=0;entryDy=0;exitX=1;exitY=1;exitDx=0;exitDy=0;" edge="1" parent="BxWfVEIkuTFbyg9M_xNW-1" source="NWCm98vPwi3nefFgjLIH-0" target="NWCm98vPwi3nefFgjLIH-40">
          <mxGeometry width="100" height="100" relative="1" as="geometry">
            <mxPoint x="360" y="580" as="sourcePoint" />
            <mxPoint x="460" y="480" as="targetPoint" />
          </mxGeometry>
        </mxCell>
        <mxCell id="NWCm98vPwi3nefFgjLIH-80" value="" style="edgeStyle=entityRelationEdgeStyle;fontSize=12;html=1;endArrow=ERzeroToMany;endFill=1;entryX=0;entryY=0.5;entryDx=0;entryDy=0;exitX=1;exitY=0.5;exitDx=0;exitDy=0;" edge="1" parent="BxWfVEIkuTFbyg9M_xNW-1" source="NWCm98vPwi3nefFgjLIH-10" target="NWCm98vPwi3nefFgjLIH-30">
          <mxGeometry width="100" height="100" relative="1" as="geometry">
            <mxPoint x="180" y="590" as="sourcePoint" />
            <mxPoint x="280" y="550" as="targetPoint" />
          </mxGeometry>
        </mxCell>
        <mxCell id="NWCm98vPwi3nefFgjLIH-81" value="" style="edgeStyle=entityRelationEdgeStyle;fontSize=12;html=1;endArrow=ERzeroToMany;endFill=1;exitX=0.25;exitY=0;exitDx=0;exitDy=0;entryX=0;entryY=0.5;entryDx=0;entryDy=0;" edge="1" parent="BxWfVEIkuTFbyg9M_xNW-1" source="NWCm98vPwi3nefFgjLIH-0" target="NWCm98vPwi3nefFgjLIH-59">
          <mxGeometry width="100" height="100" relative="1" as="geometry">
            <mxPoint x="330" y="320" as="sourcePoint" />
            <mxPoint x="98" y="240" as="targetPoint" />
          </mxGeometry>
        </mxCell>
        <mxCell id="NWCm98vPwi3nefFgjLIH-86" value="" style="edgeStyle=entityRelationEdgeStyle;fontSize=12;html=1;endArrow=ERzeroToMany;endFill=1;exitX=0.25;exitY=1;exitDx=0;exitDy=0;" edge="1" parent="BxWfVEIkuTFbyg9M_xNW-1" source="NWCm98vPwi3nefFgjLIH-0" target="NWCm98vPwi3nefFgjLIH-69">
          <mxGeometry width="100" height="100" relative="1" as="geometry">
            <mxPoint x="100" y="550" as="sourcePoint" />
            <mxPoint x="510" y="400" as="targetPoint" />
          </mxGeometry>
        </mxCell>
        <mxCell id="NWCm98vPwi3nefFgjLIH-87" value="Altura: INTEGER " style="shape=partialRectangle;connectable=0;fillColor=none;top=0;left=0;bottom=0;right=0;align=left;spacingLeft=6;overflow=hidden;" vertex="1" parent="BxWfVEIkuTFbyg9M_xNW-1">
          <mxGeometry x="560" y="640" width="220" height="30" as="geometry" />
        </mxCell>
        <mxCell id="NWCm98vPwi3nefFgjLIH-89" value="" style="edgeStyle=entityRelationEdgeStyle;fontSize=12;html=1;endArrow=ERzeroToMany;endFill=1;exitX=1;exitY=0.5;exitDx=0;exitDy=0;entryX=0;entryY=0.5;entryDx=0;entryDy=0;" edge="1" parent="BxWfVEIkuTFbyg9M_xNW-1" source="NWCm98vPwi3nefFgjLIH-56" target="NWCm98vPwi3nefFgjLIH-179">
          <mxGeometry width="100" height="100" relative="1" as="geometry">
            <mxPoint x="450" y="90" as="sourcePoint" />
            <mxPoint x="505" y="205" as="targetPoint" />
          </mxGeometry>
        </mxCell>
        <mxCell id="NWCm98vPwi3nefFgjLIH-178" value="RedSociales_Clientes" style="shape=table;startSize=30;container=1;collapsible=1;childLayout=tableLayout;fixedRows=1;rowLines=0;fontStyle=1;align=center;resizeLast=1;" vertex="1" parent="BxWfVEIkuTFbyg9M_xNW-1">
          <mxGeometry x="507.5" y="140" width="265" height="110" as="geometry" />
        </mxCell>
        <mxCell id="NWCm98vPwi3nefFgjLIH-179" value="" style="shape=partialRectangle;collapsible=0;dropTarget=0;pointerEvents=0;fillColor=none;top=0;left=0;bottom=1;right=0;points=[[0,0.5],[1,0.5]];portConstraint=eastwest;" vertex="1" parent="NWCm98vPwi3nefFgjLIH-178">
          <mxGeometry y="30" width="265" height="80" as="geometry" />
        </mxCell>
        <mxCell id="NWCm98vPwi3nefFgjLIH-180" value="PK" style="shape=partialRectangle;connectable=0;fillColor=none;top=0;left=0;bottom=0;right=0;fontStyle=1;overflow=hidden;" vertex="1" parent="NWCm98vPwi3nefFgjLIH-179">
          <mxGeometry width="30" height="80" as="geometry" />
        </mxCell>
        <mxCell id="NWCm98vPwi3nefFgjLIH-181" value="RedSociales_ID: VARCHAR (50)(FK)&#xa;Clientes_ID: VARCHAR (50)(FK)" style="shape=partialRectangle;connectable=0;fillColor=none;top=0;left=0;bottom=0;right=0;align=left;spacingLeft=6;fontStyle=5;overflow=hidden;" vertex="1" parent="NWCm98vPwi3nefFgjLIH-179">
          <mxGeometry x="30" width="235" height="80" as="geometry" />
        </mxCell>
        <mxCell id="NWCm98vPwi3nefFgjLIH-191" value="" style="edgeStyle=entityRelationEdgeStyle;fontSize=12;html=1;endArrow=ERzeroToMany;endFill=1;exitX=1.012;exitY=0.694;exitDx=0;exitDy=0;exitPerimeter=0;" edge="1" parent="BxWfVEIkuTFbyg9M_xNW-1" source="NWCm98vPwi3nefFgjLIH-14" target="NWCm98vPwi3nefFgjLIH-179">
          <mxGeometry width="100" height="100" relative="1" as="geometry">
            <mxPoint x="370" y="160" as="sourcePoint" />
            <mxPoint x="770" y="205" as="targetPoint" />
          </mxGeometry>
        </mxCell>
      </root>
    </mxGraphModel>
  </diagram>
</mxfile>
